<?xml version="1.0" encoding="UTF-8"?>
<svg version="1.1" xmlns="http://www.w3.org/2000/svg" width="350" height="350">
<path d="M0 0 C115.5 0 231 0 350 0 C350 115.5 350 231 350 350 C234.5 350 119 350 0 350 C0 234.5 0 119 0 0 Z " fill="#FEFEFE" transform="translate(0,0)"/>
<path d="M0 0 C3.375 0.875 3.375 0.875 5.375 2.875 C5.25654595 4.25498964 5.07932558 5.63008984 4.875 7 C4.72939835 14.80648845 9.68926929 20.5506628 13.92089844 26.73535156 C15.81574065 29.52353106 17.63441416 32.35734127 19.45385742 35.19506836 C20.8248411 37.33173349 22.20573618 39.46166013 23.58984375 41.58984375 C26.35806028 45.84737047 29.11728358 50.11066703 31.875 54.375 C32.79162617 55.79169287 33.70829285 57.20835953 34.625 58.625 C36.45833333 61.45833333 38.29166667 64.29166667 40.125 67.125 C40.8068335 68.17856689 40.8068335 68.17856689 41.50244141 69.25341797 C42.41140274 70.65841157 43.3199373 72.06368138 44.22802734 73.46923828 C46.63400826 77.19197683 49.04901188 80.90847168 51.4765625 84.6171875 C51.98251953 85.39255859 52.48847656 86.16792969 53.00976562 86.96679688 C53.9823157 88.45685067 54.9574603 89.94521518 55.93554688 91.43164062 C56.59006836 92.43614258 56.59006836 92.43614258 57.2578125 93.4609375 C57.64340332 94.0492334 58.02899414 94.6375293 58.42626953 95.24365234 C59.375 96.875 59.375 96.875 60.375 99.875 C62.025 100.205 63.675 100.535 65.375 100.875 C65.705 101.865 66.035 102.855 66.375 103.875 C67.261875 103.978125 68.14875 104.08125 69.0625 104.1875 C73.31336538 105.06975508 76.10769478 106.44495131 79.00048828 109.70922852 C83.39149105 116.62798262 79.58208182 128.86531071 78.5 136.4375 C78.12753838 139.11161159 77.759329 141.78630563 77.390625 144.4609375 C77.21337891 145.73936523 77.03613281 147.01779297 76.85351562 148.33496094 C76.09778021 153.92586073 75.46796852 159.52738579 74.8671875 165.13671875 C74.47171565 168.14042158 73.97602061 171.06579979 73.41015625 174.0390625 C72.06525303 181.25246576 71.34624816 188.52580959 70.60742188 195.82226562 C68.9933758 210.38434985 68.9933758 210.38434985 63.8125 215.3125 C57.35757765 219.45027074 50.96066669 217.88439388 43.79833984 216.46435547 C39.90117094 215.79342652 35.99731836 215.35817168 32.06640625 214.94921875 C23.8336456 214.06258785 15.63356483 213.00792304 7.43179321 211.87298584 C3.45524299 211.3228516 -0.52228029 210.77988741 -4.5 210.23828125 C-5.73589119 210.06999817 -5.73589119 210.06999817 -6.99674988 209.89831543 C-13.01495873 209.08313736 -19.03722805 208.30405981 -25.0625 207.54296875 C-25.92313553 207.43403793 -26.78377106 207.32510712 -27.67048645 207.21287537 C-31.79755411 206.691304 -35.92510488 206.17406355 -40.0534668 205.6628418 C-48.56862181 204.59675853 -57.02553412 203.34475616 -65.48410034 201.89559937 C-70.62861825 201.02044016 -75.74132463 200.33019392 -80.9375 199.875 C-82.51195782 199.71588989 -84.08616953 199.55432981 -85.66015625 199.390625 C-86.4608252 199.30748047 -87.26149414 199.22433594 -88.08642578 199.13867188 C-89.34302002 199.0081543 -89.34302002 199.0081543 -90.625 198.875 C-91.99567627 198.73674805 -91.99567627 198.73674805 -93.39404297 198.59570312 C-96.22480242 198.29910583 -99.04927107 197.96592091 -101.875 197.625 C-103.17884644 197.49738281 -103.17884644 197.49738281 -104.5090332 197.3671875 C-110.68860397 196.57751215 -114.46424607 194.55387363 -118.625 189.875 C-122.48210474 182.16079051 -119.39499514 169.22328851 -117.97143555 160.97387695 C-116.66685234 153.38202038 -115.65872315 145.76614321 -114.6875 138.125 C-114.51750488 136.81845459 -114.34750977 135.51190918 -114.17236328 134.16577148 C-113.3622815 127.91391062 -112.58861303 121.66202187 -111.92253113 115.39300537 C-111.61975105 112.56513903 -111.29823364 109.73954061 -110.97506714 106.91394043 C-110.75541601 104.924065 -110.56302583 102.93124011 -110.37133789 100.93847656 C-109.63237152 94.54059462 -108.96876659 89.63655886 -104.21630859 85.02587891 C-101.97516959 83.40502447 -100.11619478 82.84418719 -97.375 82.5625 C-93.54849298 82.23731549 -93.54849298 82.23731549 -90.625 79.875 C-89.69816406 79.58367187 -88.77132812 79.29234375 -87.81640625 78.9921875 C-79.20554623 75.97785951 -72.06806899 67.50269278 -65.46044922 61.31665039 C-62.13526387 58.21802586 -58.73858287 55.27940919 -55.1875 52.4375 C-50.81248028 48.92856861 -46.70479091 45.21655495 -42.625 41.375 C-37.72070347 36.75708575 -32.69328256 32.4163454 -27.4296875 28.20703125 C-23.49392589 24.93453866 -19.76388195 21.45585156 -16.03881836 17.94702148 C-13.84784754 15.88993384 -11.72574409 13.94431326 -9.24609375 12.23828125 C-8.44365234 11.56345703 -8.44365234 11.56345703 -7.625 10.875 C-7.625 9.740625 -7.625 8.60625 -7.625 7.4375 C-7.625 3.875 -7.625 3.875 -6.0625 1.375 C-3.625 -0.125 -3.625 -0.125 0 0 Z " fill="#FA0B0B" transform="translate(192.625,63.125)"/>
<path d="M0 0 C2.88192337 1.33140045 3.83191553 2.75690909 5.57275391 5.39697266 C6.174021 6.29923584 6.77528809 7.20149902 7.39477539 8.13110352 C8.32785522 9.57755249 8.32785522 9.57755249 9.27978516 11.05322266 C9.90119385 12.00656494 10.52260254 12.95990723 11.1628418 13.94213867 C13.13438631 16.99012285 15.08443489 20.05096104 17.02978516 23.11572266 C18.44743981 25.33988122 19.86540924 27.56383918 21.28369141 29.78759766 C21.96834473 30.86203125 22.65299805 31.93646484 23.35839844 33.04345703 C25.88015791 36.9936795 28.41879672 40.93270509 30.96728516 44.86572266 C31.39477051 45.52556152 31.82225586 46.18540039 32.26269531 46.86523438 C35.24192999 51.45975714 38.22754856 56.05013083 41.21411133 60.63989258 C42.32913407 62.35517595 43.44261368 64.07146356 44.55444336 65.78881836 C47.05198703 69.64474808 49.5628936 73.48762646 52.13916016 77.29150391 C52.5676123 77.9325708 52.99606445 78.5736377 53.4375 79.23413086 C54.57193641 80.92941479 55.71836941 82.61665392 56.86572266 84.30322266 C58.27978516 87.05322266 58.27978516 87.05322266 58.00634766 89.42822266 C57.76658203 89.96447266 57.52681641 90.50072266 57.27978516 91.05322266 C56.01714844 90.88886719 56.01714844 90.88886719 54.72900391 90.72119141 C48.10417398 89.87502933 41.47960941 89.06623003 34.83837891 88.35791016 C33.69602783 88.23520752 32.55367676 88.11250488 31.37670898 87.98608398 C29.1361333 87.74707454 26.89510756 87.51223013 24.65356445 87.2824707 C18.40789527 86.6137745 12.23281669 85.7444772 6.04541016 84.67822266 C-4.66540641 82.83635043 -15.42521782 81.38658834 -26.19628906 79.94604492 C-29.58381178 79.49225022 -32.97038481 79.0318008 -36.35693359 78.57080078 C-47.29999541 77.09391299 -58.2292456 75.68135548 -69.23580933 74.76499939 C-74.24290327 74.31966818 -78.92264152 73.59932997 -83.72021484 72.05322266 C-84.05021484 71.06322266 -84.38021484 70.07322266 -84.72021484 69.05322266 C-72.6364546 57.6994829 -72.6364546 57.6994829 -66.22021484 52.55322266 C-60.81584702 48.21394922 -55.77066362 43.5492585 -50.70458984 38.82666016 C-46.08667723 34.52216752 -41.31259878 30.4100986 -36.50927734 26.31494141 C-30.8921268 21.52222738 -25.30036874 16.71788671 -19.84521484 11.74072266 C-18.96349609 10.94408203 -18.08177734 10.14744141 -17.17333984 9.32666016 C-15.603819 7.87210421 -14.06807704 6.37966427 -12.57958984 4.84228516 C-8.67600312 0.95406689 -5.66728428 -1.33762786 0 0 Z " fill="#FDFCFC" transform="translate(192.72021484375,74.94677734375)"/>
<path d="M0 0 C3.98890306 1.32963435 5.45986152 1.9442748 7.375 5.6875 C7.58125 6.450625 7.7875 7.21375 8 8 C10.7839183 6.60804085 10.97898997 4.84424221 12 2 C17.24721879 1.91254635 17.24721879 1.91254635 20 3 C22.65331563 6.66653232 24 10.48723931 24 15 C24.66 15 25.32 15 26 15 C26.226875 14.46375 26.45375 13.9275 26.6875 13.375 C28.49538935 10.10358117 30.31784602 7.62255055 33 5 C36.8125 4.625 36.8125 4.625 40 5 C40.495 6.485 40.495 6.485 41 8 C41.33 7.34 41.66 6.68 42 6 C44.97 6.33 47.94 6.66 51 7 C51 7.99 51 8.98 51 10 C51.66 10 52.32 10 53 10 C53 9.34 53 8.68 53 8 C58.10880829 7.20725389 58.10880829 7.20725389 61 8 C63.53166875 10.71704199 65.28204023 13.72025861 67 17 C67.66 14.69 68.32 12.38 69 10 C71.64 10 74.28 10 77 10 C76.53430878 17.8187104 75.77541538 25.36399015 74 33 C70.875 33.625 70.875 33.625 67 33 C64.50484239 29.91488105 62.73463624 26.55822819 61 23 C60.34 25.64 59.68 28.28 59 31 C55.66666667 31 52.33333333 31 49 31 C48.01 31.66 47.02 32.32 46 33 C47.546875 33.61875 47.546875 33.61875 49.125 34.25 C54.81389306 36.73242606 59.38383578 39.25558079 62.30078125 45.015625 C63.90638286 49.57230444 63.96766302 53.80076586 62.01171875 58.24609375 C59.14836077 63.07745628 56.42223015 66.19258995 51 68 C42.05113498 68.67272936 35.29830585 67.55594806 28.3828125 61.6328125 C26.80987695 59.77550443 26.40121466 58.37642529 26 56 C21.47082429 57.26395601 18.55236071 58.94102273 15 62 C10.27977277 64.36011362 4.10482256 63.57635093 -1 63 C-5.79827598 61.07936045 -8.93806275 58.38373641 -12.0625 54.3125 C-13.60533155 48.86116186 -14.39257687 42.65252737 -11.6875 37.5 C-11.130625 36.675 -10.57375 35.85 -10 35 C-8.85062574 31.37066958 -7.91249307 27.69527335 -7 24 C-8.093125 23.443125 -9.18625 22.88625 -10.3125 22.3125 C-13.72887828 20.32076529 -15.56115263 18.80871362 -17 15 C-17.70945396 11.09076388 -17.85317079 7.69940523 -16.0390625 4.0859375 C-11.73728872 -1.16073456 -6.32569482 -0.93992494 0 0 Z " fill="#F31111" transform="translate(144,177)"/>
<path d="M0 0 C3.375 0.875 3.375 0.875 5.375 2.875 C5.25654595 4.25498964 5.07932558 5.63008984 4.875 7 C4.72939835 14.80648845 9.68926929 20.5506628 13.92089844 26.73535156 C15.81574065 29.52353106 17.63441416 32.35734127 19.45385742 35.19506836 C20.8248411 37.33173349 22.20573618 39.46166013 23.58984375 41.58984375 C26.35806028 45.84737047 29.11728358 50.11066703 31.875 54.375 C32.79162617 55.79169287 33.70829285 57.20835953 34.625 58.625 C36.45833333 61.45833333 38.29166667 64.29166667 40.125 67.125 C40.8068335 68.17856689 40.8068335 68.17856689 41.50244141 69.25341797 C42.41140274 70.65841157 43.3199373 72.06368138 44.22802734 73.46923828 C46.63400826 77.19197683 49.04901188 80.90847168 51.4765625 84.6171875 C51.98251953 85.39255859 52.48847656 86.16792969 53.00976562 86.96679688 C53.9823157 88.45685067 54.9574603 89.94521518 55.93554688 91.43164062 C56.59006836 92.43614258 56.59006836 92.43614258 57.2578125 93.4609375 C57.64340332 94.0492334 58.02899414 94.6375293 58.42626953 95.24365234 C59.375 96.875 59.375 96.875 60.375 99.875 C62.025 100.205 63.675 100.535 65.375 100.875 C65.705 101.865 66.035 102.855 66.375 103.875 C67.261875 103.978125 68.14875 104.08125 69.0625 104.1875 C73.31336538 105.06975508 76.10769478 106.44495131 79.00048828 109.70922852 C83.39149105 116.62798262 79.58208182 128.86531071 78.5 136.4375 C78.12753838 139.11161159 77.759329 141.78630563 77.390625 144.4609375 C77.21337891 145.73936523 77.03613281 147.01779297 76.85351562 148.33496094 C76.25833401 152.73809024 75.73876287 157.14651191 75.25 161.5625 C74.65627115 166.77585597 73.8885238 171.89226195 72.875 177.0390625 C72.01945144 181.89162699 71.49911218 186.79345101 70.9375 191.6875 C70.375 194.875 70.375 194.875 68.375 197.875 C68.20800768 201.00021833 68.20800768 201.00021833 68.375 203.875 C67.385 203.545 66.395 203.215 65.375 202.875 C65.21307486 195.93428632 65.65889363 189.2664455 66.58203125 182.390625 C66.7080925 181.41373718 66.83415375 180.43684937 66.96403503 179.43035889 C67.36592848 176.32776681 67.77661256 173.22641231 68.1875 170.125 C68.45173843 168.09252149 68.71541419 166.05996975 68.97851562 164.02734375 C70.03181243 155.92531086 71.09210532 147.82507064 72.24365234 139.73632812 C72.4526844 138.25407745 72.4526844 138.25407745 72.66593933 136.74188232 C72.92925586 134.8828324 73.19707834 133.02441245 73.47041321 131.16680908 C73.81349454 128.73875949 74.11203591 126.31294387 74.375 123.875 C74.45932281 123.14188599 74.54364563 122.40877197 74.63052368 121.65344238 C74.88283216 117.83991469 74.53079442 116.09247139 72.28564453 112.95849609 C68.94299722 110.56576399 66.86755124 110.02606315 62.8046875 109.5390625 C62.15269379 109.45434189 61.50070007 109.36962128 60.82894897 109.28233337 C58.63793981 109.00195012 56.44449578 108.75151251 54.25 108.5 C52.6621439 108.30171435 51.07458457 108.10104005 49.48730469 107.89819336 C46.00322172 107.45425499 42.51808895 107.02005822 39.03222656 106.59033203 C33.12567161 105.85327012 27.230676 105.04051234 21.3359375 104.21484375 C20.30388687 104.07044861 19.27183624 103.92605347 18.20851135 103.77728271 C16.08819039 103.48056845 13.96787489 103.18381513 11.8475647 102.88702393 C-8.48483509 100.05080463 -28.83903466 97.41259287 -49.21582031 94.91625977 C-50.13988678 94.80278702 -51.06395325 94.68931427 -52.01602173 94.57240295 C-53.83670358 94.34889134 -55.65748275 94.12617082 -57.47836304 93.90428162 C-62.16262281 93.32739881 -66.83787301 92.71064862 -71.50927734 92.03710938 C-72.48297775 91.8980719 -73.45667816 91.75903442 -74.45988464 91.61578369 C-76.29609584 91.35124454 -78.13142255 91.08044565 -79.9655304 90.80169678 C-90.84863426 88.92851601 -90.84863426 88.92851601 -101.1875 91.25 C-104.7994855 97.84579961 -105.06734864 106.47083274 -106.02734375 113.8515625 C-106.14975937 114.77210922 -106.27217499 115.69265594 -106.39830017 116.64109802 C-106.78991748 119.59360929 -107.17658171 122.54673882 -107.5625 125.5 C-107.83013784 127.53573946 -108.09787912 129.57146533 -108.36572266 131.60717773 C-108.88809053 135.58305082 -109.40800762 139.55923429 -109.92626953 143.53564453 C-110.5010899 147.94066039 -111.08943864 152.34364778 -111.68359375 156.74609375 C-111.95624098 158.80982828 -112.22843717 160.8736225 -112.5 162.9375 C-112.61980225 163.80648926 -112.73960449 164.67547852 -112.86303711 165.57080078 C-113.44768757 170.12088698 -113.78612804 174.66088922 -113.9453125 179.24609375 C-113.98156738 180.22376709 -114.01782227 181.20144043 -114.05517578 182.20874023 C-113.50500951 185.61870951 -112.26472209 186.72972829 -109.625 188.875 C-105.82441831 190.77529085 -101.08407408 189.82275269 -96.91015625 189.71484375 C-93.625 189.875 -93.625 189.875 -90.625 191.875 C-87.964545 192.44968471 -87.964545 192.44968471 -84.91040039 192.78881836 C-83.1456411 193.01431618 -83.1456411 193.01431618 -81.3452301 193.24436951 C-80.06728073 193.39962601 -78.78933136 193.55488251 -77.47265625 193.71484375 C-76.13470524 193.88340013 -74.79685151 194.0527304 -73.45909119 194.22279358 C-69.92153797 194.67070679 -66.38291405 195.10948815 -62.84393311 195.54595947 C-57.25357711 196.23694146 -51.66486076 196.94114468 -46.0761528 197.64531326 C-44.71788101 197.81636562 -43.35956656 197.98707961 -42.00120926 198.15745163 C-30.84755277 199.55778872 -19.7281097 201.11976887 -8.625 202.875 C-9.285 203.205 -9.945 203.535 -10.625 203.875 C-10.625 204.865 -10.625 205.855 -10.625 206.875 C-19.74707758 207.07608149 -28.67662726 206.47442204 -37.75 205.5625 C-38.77196472 205.46220993 -38.77196472 205.46220993 -39.8145752 205.3598938 C-48.42219559 204.51205907 -56.95748398 203.48292449 -65.4699707 201.93041992 C-70.61086161 201.00131385 -75.73904016 200.38472603 -80.9375 199.875 C-84.16707092 199.54552734 -87.39603805 199.21037978 -90.625 198.875 C-91.99567627 198.73674805 -91.99567627 198.73674805 -93.39404297 198.59570312 C-96.22480242 198.29910583 -99.04927107 197.96592091 -101.875 197.625 C-103.17884644 197.49738281 -103.17884644 197.49738281 -104.5090332 197.3671875 C-110.68860397 196.57751215 -114.46424607 194.55387363 -118.625 189.875 C-122.48210474 182.16079051 -119.39499514 169.22328851 -117.97143555 160.97387695 C-116.66685234 153.38202038 -115.65872315 145.76614321 -114.6875 138.125 C-114.51750488 136.81845459 -114.34750977 135.51190918 -114.17236328 134.16577148 C-113.3622815 127.91391062 -112.58861303 121.66202187 -111.92253113 115.39300537 C-111.61975105 112.56513903 -111.29823364 109.73954061 -110.97506714 106.91394043 C-110.75541601 104.924065 -110.56302583 102.93124011 -110.37133789 100.93847656 C-109.63237152 94.54059462 -108.96876659 89.63655886 -104.21630859 85.02587891 C-101.97516959 83.40502447 -100.11619478 82.84418719 -97.375 82.5625 C-93.54849298 82.23731549 -93.54849298 82.23731549 -90.625 79.875 C-89.69816406 79.58367187 -88.77132812 79.29234375 -87.81640625 78.9921875 C-79.20554623 75.97785951 -72.06806899 67.50269278 -65.46044922 61.31665039 C-62.13526387 58.21802586 -58.73858287 55.27940919 -55.1875 52.4375 C-50.81248028 48.92856861 -46.70479091 45.21655495 -42.625 41.375 C-37.72070347 36.75708575 -32.69328256 32.4163454 -27.4296875 28.20703125 C-23.49392589 24.93453866 -19.76388195 21.45585156 -16.03881836 17.94702148 C-13.84784754 15.88993384 -11.72574409 13.94431326 -9.24609375 12.23828125 C-8.44365234 11.56345703 -8.44365234 11.56345703 -7.625 10.875 C-7.625 9.740625 -7.625 8.60625 -7.625 7.4375 C-7.625 3.875 -7.625 3.875 -6.0625 1.375 C-3.625 -0.125 -3.625 -0.125 0 0 Z M-13.125 17.8125 C-17.34258298 21.83462342 -21.56119932 25.74161702 -26.125 29.375 C-30.4820342 32.86062736 -34.56621533 36.55293667 -38.625 40.375 C-43.53806055 45.00120527 -48.57621959 49.34770878 -53.84765625 53.56640625 C-57.62592425 56.70699189 -61.18817488 60.05721371 -64.76953125 63.41845703 C-69.10503708 67.4622497 -73.60959812 71.19079914 -78.28515625 74.83984375 C-80.74995805 76.98368638 -82.66338004 79.27007742 -84.625 81.875 C-84.295 82.535 -83.965 83.195 -83.625 83.875 C-73.5936316 86.70094597 -62.94419549 87.45060403 -52.61791992 88.53662109 C-40.74028071 89.80965748 -28.90344979 91.36355303 -17.0625 92.9375 C-15.58168442 93.1323851 -15.58168442 93.1323851 -14.07095337 93.33120728 C-11.21215856 93.70797855 -8.35404374 94.08953476 -5.49609375 94.47265625 C-4.64902863 94.58405945 -3.8019635 94.69546265 -2.92922974 94.8102417 C2.12907277 95.49628082 7.10324093 96.40013745 12.1023407 97.42991638 C14.955927 97.98877028 17.8039973 98.35295518 20.6953125 98.65625 C21.80092529 98.77508545 22.90653809 98.8939209 24.0456543 99.01635742 C25.18558838 99.13470947 26.32552246 99.25306152 27.5 99.375 C29.88420535 99.63066535 32.26832049 99.88717344 34.65234375 100.14453125 C35.79944824 100.26779785 36.94655273 100.39106445 38.12841797 100.51806641 C44.5538868 101.22449109 50.96502294 102.0406232 57.375 102.875 C58.16585624 101.13478474 58.16585624 101.13478474 58.375 98.875 C57.24043884 96.32579048 57.24043884 96.32579048 55.4296875 93.71875 C54.77121826 92.70619141 54.11274902 91.69363281 53.43432617 90.65039062 C52.71349854 89.56951172 51.9926709 88.48863281 51.25 87.375 C50.51093676 86.24752322 49.77307329 85.11925912 49.03637695 83.99023438 C47.54033682 81.70138786 46.03766289 79.41713767 44.52880859 77.13671875 C42.05047415 73.38353941 39.60169825 69.61194801 37.15722656 65.83666992 C35.56863044 63.38446314 33.97458027 60.93588711 32.37890625 58.48828125 C30.0188399 54.86650159 27.6668078 51.239671 25.32250977 47.60766602 C24.44684126 46.2535078 23.56845755 44.9011012 22.68725586 43.55053711 C19.93437723 39.32547767 17.25051472 35.06455439 14.6015625 30.7734375 C13.27615662 28.66138619 11.95063654 26.54940654 10.625 24.4375 C9.70388428 22.91612427 9.70388428 22.91612427 8.76416016 21.36401367 C5.2862822 15.50131227 5.2862822 15.50131227 -0.390625 12.21484375 C-6.82929284 11.53831706 -8.67582424 13.47323943 -13.125 17.8125 Z " fill="#F40F0F" transform="translate(192.625,63.125)"/>
<path d="M0 0 C10.76420073 -0.62805709 21.22108865 0.47606658 31.875 1.875 C32.54540314 1.96213257 33.21580627 2.04926514 33.90652466 2.13903809 C40.01422071 2.94016352 46.09690383 3.7606337 52.125 5.0390625 C58.07451716 6.28945699 64.08319391 6.87366055 70.125 7.5 C83.83018186 8.95104908 83.83018186 8.95104908 89.24609375 9.70703125 C89.99036621 9.81015625 90.73463867 9.91328125 91.50146484 10.01953125 C93.42017458 10.29226895 95.33712784 10.57728574 97.25390625 10.86328125 C98.16011719 10.90839844 99.06632812 10.95351562 100 11 C100.66 10.34 101.32 9.68 102 9 C102.99 9.99 102.99 9.99 104 11 C104 10.34 104 9.68 104 9 C105.9375 9.3125 105.9375 9.3125 108 10 C108.495 11.485 108.495 11.485 109 13 C109.886875 13.103125 110.77375 13.20625 111.6875 13.3125 C115.93836538 14.19475508 118.73269478 15.56995131 121.62548828 18.83422852 C126.01649105 25.75298262 122.20708182 37.99031071 121.125 45.5625 C120.75253838 48.23661159 120.384329 50.91130563 120.015625 53.5859375 C119.83837891 54.86436523 119.66113281 56.14279297 119.47851562 57.45996094 C118.88333401 61.86309024 118.36376287 66.27151191 117.875 70.6875 C117.28127115 75.90085597 116.5135238 81.01726195 115.5 86.1640625 C114.64445144 91.01662699 114.12411218 95.91845101 113.5625 100.8125 C113 104 113 104 111 107 C110.83300768 110.12521833 110.83300768 110.12521833 111 113 C109.515 112.505 109.515 112.505 108 112 C107.83807486 105.05928632 108.28389363 98.3914455 109.20703125 91.515625 C109.3330925 90.53873718 109.45915375 89.56184937 109.58903503 88.55535889 C109.99092848 85.45276681 110.40161256 82.35141231 110.8125 79.25 C111.07673843 77.21752149 111.34041419 75.18496975 111.60351562 73.15234375 C112.65681243 65.05031086 113.71710532 56.95007064 114.86865234 48.86132812 C115.00800705 47.87316101 115.14736176 46.8849939 115.29093933 45.86688232 C115.55425586 44.0078324 115.82207834 42.14941245 116.09541321 40.29180908 C116.43849454 37.86375949 116.73703591 35.43794387 117 33 C117.08432281 32.26688599 117.16864563 31.53377197 117.25552368 30.77844238 C117.50783216 26.96491469 117.15579442 25.21747139 114.91064453 22.08349609 C111.56799722 19.69076399 109.49255124 19.15106315 105.4296875 18.6640625 C104.77665146 18.57920593 104.12361542 18.49434937 103.45079041 18.40692139 C101.26083214 18.12666631 99.06845442 17.87629689 96.875 17.625 C95.30399051 17.42890523 93.73327643 17.23043165 92.1628418 17.02978516 C89.60534427 16.70398026 87.04767334 16.38061039 84.48887634 16.06515503 C77.36722002 15.1871606 70.25912435 14.22516304 63.15234375 13.234375 C61.49848663 13.00414139 61.49848663 13.00414139 59.81121826 12.76925659 C57.5779943 12.45809365 55.34479926 12.14672303 53.1116333 11.83514404 C35.42790888 9.36872038 17.73493068 7.06934807 0 5 C0 3.35 0 1.7 0 0 Z " fill="#F40E0E" transform="translate(150,154)"/>
<path d="M0 0 C4.71101179 1.84888933 8.32307901 5.04707431 10.87109375 9.3984375 C12.43322049 13.09135994 12.3989659 16.57743393 11.76171875 20.50390625 C9.7968122 25.02867113 7.12543793 29.03113205 2.76171875 31.50390625 C-3.65780571 33.64374774 -11.0336792 33.07940144 -17.23828125 30.50390625 C-21.21771411 27.74266712 -24.40352678 25.07331858 -26.23828125 20.50390625 C-26.71793106 14.65217851 -26.19837102 10.73339819 -23.23828125 5.50390625 C-16.67638973 -1.2679658 -9.09624276 -2.01609569 0 0 Z " fill="#FAF3F2" transform="translate(195.23828125,212.49609375)"/>
<path d="M0 0 C4.55702584 1.59155828 7.21470609 4.1754414 10.5 7.625 C12.65271187 12.4686017 12.76983661 16.78221852 12 22 C9.54432448 27.00230198 6.0029693 30.49851535 1 33 C-7.10908761 33.85075421 -13.74273088 33.93577229 -20.2890625 28.69140625 C-24.34408495 24.68267401 -25.1891823 21.11173316 -25.5 15.5625 C-25.36666861 10.89590127 -24.45537968 8.08619641 -21.58203125 4.4375 C-15.23535529 -1.32935618 -8.07800359 -0.90898979 0 0 Z " fill="#FBF7F6" transform="translate(156,207)"/>
<path d="M0 0 C3.51040466 -0.63568696 6.51417337 -0.84735524 10 0 C13.00705657 2.96339695 14.96309024 6.32546108 17 10 C17.99 11.485 17.99 11.485 19 13 C19.66 9.37 20.32 5.74 21 2 C29.625 2.875 29.625 2.875 33 4 C32.52428058 8.22956186 32.04382314 12.45857247 31.5625 16.6875 C31.42779297 17.88568359 31.29308594 19.08386719 31.15429688 20.31835938 C31.02216797 21.47529297 30.89003906 22.63222656 30.75390625 23.82421875 C30.57323608 25.41882935 30.57323608 25.41882935 30.38891602 27.0456543 C30.0353862 29.73119372 29.56719997 32.35235333 29 35 C25.09596475 35.30356874 21.74032726 35.22337782 18 34 C14.96893137 30.66892799 12.95142384 27.04271082 11 23 C9.41727399 24.58272601 9.65264253 26.38034003 9.4375 28.5625 C9.293125 30.026875 9.14875 31.49125 9 33 C4.71 32.67 0.42 32.34 -4 32 C-2 10.46808511 -2 10.46808511 0 0 Z " fill="#FAF2F2" transform="translate(211,216)"/>
<path d="M0 0 C0.33 0 0.66 0 1 0 C1.34768042 8.47393147 0.2608528 16.62397004 -0.9375 25 C-2.10356929 33.3231801 -3.26236983 41.62623509 -4 50 C-3.34 49.67 -2.68 49.34 -2 49 C-1.34444881 46.47266765 -1.34444881 46.47266765 -1 44 C-0.67 44 -0.34 44 0 44 C0.31641761 49.90646198 -0.05016271 54.76229678 -3 60 C-7.18088888 63.97694308 -9.8610613 65.23212579 -15.62890625 65.16015625 C-19.01127468 64.93169314 -22.26060019 64.24672751 -25.58227539 63.58862305 C-29.44797336 62.92284708 -33.31950047 62.49080184 -37.21875 62.0859375 C-46.71285851 61.06477418 -56.16648519 59.80578076 -65.625 58.5 C-68.74201533 58.0716534 -71.85921838 57.64469699 -74.9765625 57.21875 C-75.72633362 57.11618896 -76.47610474 57.01362793 -77.24859619 56.90795898 C-84.82480035 55.8773505 -92.41083278 54.92965675 -100 54 C-100 53.67 -100 53.34 -100 53 C-93.4 53.33 -86.8 53.66 -80 54 C-80 53.01 -80 52.02 -80 51 C-95.81460486 48.13208777 -111.7450349 46.15700384 -127.68536377 44.14379883 C-133.32114926 43.43162416 -138.95632859 42.7147072 -144.59122276 41.99551773 C-146.54138165 41.74736016 -148.49185655 41.50169003 -150.44233704 41.256073 C-152.21655281 41.03046188 -152.21655281 41.03046188 -154.02661133 40.80029297 C-155.06263992 40.66944305 -156.09866852 40.53859314 -157.16609192 40.40377808 C-159.80368447 40.02797123 -162.39406743 39.55139052 -165 39 C-165 38.67 -165 38.34 -165 38 C-152.17142397 38.56714522 -139.5559149 40.09462683 -126.8359375 41.80078125 C-124.71113204 42.08170428 -122.58626281 42.36214539 -120.46133423 42.64213562 C-114.89270268 43.37720106 -109.32495948 44.11879076 -103.75738525 44.86181641 C-98.1877449 45.6039393 -92.61727052 46.33974288 -87.046875 47.07617188 C-52.52617748 51.64490587 -52.52617748 51.64490587 -40.48144531 53.31005859 C-39.07908942 53.50250924 -37.67671591 53.69483151 -36.27432251 53.88700867 C-33.81296758 54.22555613 -31.35225359 54.56882039 -28.89242554 54.91828918 C-18.02580332 56.90309535 -18.02580332 56.90309535 -8 54 C-7.29848873 50.17357491 -6.98488903 46.75554851 -7.0625 42.875 C-7 40 -7 40 -6.06079102 37.25830078 C-4.93740147 33.80772384 -4.41686587 30.59048651 -3.96484375 26.9921875 C-3.88126114 26.34428253 -3.79767853 25.69637756 -3.71156311 25.02883911 C-3.44787066 22.97823436 -3.19221674 20.92673727 -2.9375 18.875 C-2.6779348 16.81631297 -2.41662502 14.75787348 -2.15272522 12.69973755 C-1.91458264 10.83787445 -1.68163747 8.97534876 -1.44897461 7.11279297 C-1.09658258 4.66961821 -0.66642324 2.37154247 0 0 Z " fill="#F33D3D" transform="translate(262,216)"/>
<path d="M0 0 C3.25 1.6875 3.25 1.6875 4.25 4.6875 C2.8125 7.375 2.8125 7.375 1.25 9.6875 C-3.23525648 9.031121 -7.41914029 7.98675791 -11.75 6.6875 C-11.75 8.0075 -11.75 9.3275 -11.75 10.6875 C-11.08613281 10.85765625 -10.42226562 11.0278125 -9.73828125 11.203125 C0.30738107 13.96018269 0.30738107 13.96018269 3.25 17.6875 C4.01784675 20.8600761 4.06272916 23.52124264 3.25 26.6875 C0.87257546 29.84501696 -2.00905409 31.44051803 -5.75 32.6875 C-12.70600003 33.57149167 -19.66205435 32.20981141 -25.75 28.6875 C-26.65234375 26.71875 -26.65234375 26.71875 -26.75 24.6875 C-25.3125 21.9375 -25.3125 21.9375 -23.75 19.6875 C-21.61608974 20.14476648 -19.85639437 20.62879966 -17.9375 21.6875 C-14.94737502 23.05441428 -11.99675551 23.31287436 -8.75 23.6875 C-8.75 22.6975 -8.75 21.7075 -8.75 20.6875 C-9.41386719 20.52894531 -10.07773438 20.37039062 -10.76171875 20.20703125 C-20.5291411 17.62615031 -20.5291411 17.62615031 -23.75 12.6875 C-24.49786511 9.49892782 -24.52184902 6.87281721 -23.75 3.6875 C-18.37205302 -3.84162577 -8.07727506 -2.72644483 0 0 Z " fill="#FBF3F2" transform="translate(125.75,203.3125)"/>
<path d="M0 0 C1.32 0.66 2.64 1.32 4 2 C3.67 2.66 3.34 3.32 3 4 C2.59302204 8.81748326 2.3324855 13.8081915 5 18 C9.19497598 20.54240969 14.20439053 20.60297787 19 21 C19 21.33 19 21.66 19 22 C18.030625 22.12375 17.06125 22.2475 16.0625 22.375 C15.051875 22.58125 14.04125 22.7875 13 23 C12.67 23.66 12.34 24.32 12 25 C12.99 25.33 13.98 25.66 15 26 C14.01 26 13.02 26 12 26 C12.020625 27.051875 12.04125 28.10375 12.0625 29.1875 C12.01103198 32.32704904 11.73482813 34.96883396 11 38 C7.79443155 35.06919456 5.7698599 32.63675752 3.8125 28.75 C2.21564779 26.00959555 1.55201399 25.15965943 -1.5390625 24.265625 C-4.05190697 24.02495821 -6.47811829 23.92165028 -9 24 C-8.9690625 24.92941406 -8.938125 25.85882813 -8.90625 26.81640625 C-8.90625 31.92104289 -9.73577163 36.90116618 -10.5 41.9375 C-10.64308594 42.90751953 -10.78617188 43.87753906 -10.93359375 44.87695312 C-11.28458671 47.25200552 -11.64016096 49.62627459 -12 52 C-12.33 52 -12.66 52 -13 52 C-13 49.69 -13 47.38 -13 45 C-13.66 45 -14.32 45 -15 45 C-14.84144531 44.42894531 -14.68289062 43.85789063 -14.51953125 43.26953125 C-13.3542488 38.17908684 -13.13487944 33.01149823 -15.5 28.25 C-18.16500421 24.25713654 -21.54906109 21.75251137 -26 20 C-29.6708967 19.34707371 -33.27497847 19.07532213 -37 19 C-37 18.67 -37 18.34 -37 18 C-35.906875 17.855625 -34.81375 17.71125 -33.6875 17.5625 C-30.06877013 17.11711896 -30.06877013 17.11711896 -27 16 C-26.67 15.34 -26.34 14.68 -26 14 C-21.545 14.99 -21.545 14.99 -17 16 C-16.67 13.03 -16.34 10.06 -16 7 C-13.0444623 9.75170751 -10.88436685 12.41970299 -9 16 C-9 16.66 -9 17.32 -9 18 C-6.69 18 -4.38 18 -2 18 C-1.34 12.06 -0.68 6.12 0 0 Z " fill="#F40B0B" transform="translate(220,192)"/>
<path d="M0 0 C3.375 0.875 3.375 0.875 5.375 2.875 C5.25654595 4.25498964 5.07932558 5.63008984 4.875 7 C4.72939835 14.80648845 9.68926929 20.5506628 13.92089844 26.73535156 C15.81574065 29.52353106 17.63441416 32.35734127 19.45385742 35.19506836 C20.8248411 37.33173349 22.20573618 39.46166013 23.58984375 41.58984375 C26.35806028 45.84737047 29.11728358 50.11066703 31.875 54.375 C32.79162617 55.79169287 33.70829285 57.20835953 34.625 58.625 C36.45833333 61.45833333 38.29166667 64.29166667 40.125 67.125 C40.57939453 67.82713623 41.03378906 68.52927246 41.50195312 69.25268555 C42.41251488 70.66013813 43.32267551 72.06785031 44.23242188 73.47583008 C46.61415892 77.16077368 49.00405301 80.8400743 51.40625 84.51171875 C51.90318359 85.27355469 52.40011719 86.03539062 52.91210938 86.8203125 C53.85874007 88.27122309 54.80780071 89.72055242 55.75976562 91.16796875 C58.23422766 94.96684299 60.43256553 98.76649551 62.375 102.875 C58.03633023 101.42877674 56.68305389 98.09585771 54.375 94.375 C53.37913473 92.80193867 52.38303494 91.22902578 51.38671875 89.65625 C50.88188965 88.85316406 50.37706055 88.05007812 49.85693359 87.22265625 C47.66625756 83.75222121 45.42577165 80.31483912 43.1875 76.875 C38.59566237 69.78956504 34.04671629 62.67694482 29.5 55.5625 C24.44199397 47.65010637 19.36750473 39.74906402 14.25 31.875 C13.74227051 31.09342529 13.23454102 30.31185059 12.71142578 29.5065918 C11.74829729 28.02733013 10.7767201 26.55352751 9.79589844 25.0859375 C8.80439462 23.54314392 7.87400369 21.96010638 6.99316406 20.3515625 C4.42171719 15.79656691 4.42171719 15.79656691 0.23730469 12.88330078 C-3.09085081 12.25161321 -5.47672298 12.23948702 -8.47949219 13.90136719 C-10.30616996 15.40908457 -11.89077433 17.01248905 -13.5 18.75 C-14.71353048 19.96875558 -15.92969861 21.18489026 -17.1484375 22.3984375 C-17.73850586 22.9975293 -18.32857422 23.59662109 -18.93652344 24.21386719 C-21.2018073 26.44246629 -23.62987213 28.40981079 -26.125 30.375 C-30.4820342 33.86062736 -34.56621533 37.55293667 -38.625 41.375 C-43.53806055 46.00120527 -48.57621959 50.34770878 -53.84765625 54.56640625 C-57.04943578 57.22780105 -60.08725954 60.02970768 -63.125 62.875 C-67.98376619 67.42340289 -72.97787842 71.72270169 -78.16796875 75.89453125 C-81.38253947 78.48560812 -84.50512108 81.17110494 -87.625 83.875 C-87.955 83.215 -88.285 82.555 -88.625 81.875 C-85.80682756 78.95920034 -82.86188244 76.39541192 -79.6875 73.875 C-75.34249271 70.35733764 -71.20328347 66.69717986 -67.125 62.875 C-63.25037807 59.24538424 -59.33599182 55.75751181 -55.1875 52.4375 C-50.81248028 48.92856861 -46.70479091 45.21655495 -42.625 41.375 C-37.72070347 36.75708575 -32.69328256 32.4163454 -27.4296875 28.20703125 C-23.49392589 24.93453866 -19.76388195 21.45585156 -16.03881836 17.94702148 C-13.84784754 15.88993384 -11.72574409 13.94431326 -9.24609375 12.23828125 C-8.44365234 11.56345703 -8.44365234 11.56345703 -7.625 10.875 C-7.625 9.740625 -7.625 8.60625 -7.625 7.4375 C-7.625 3.875 -7.625 3.875 -6.0625 1.375 C-3.625 -0.125 -3.625 -0.125 0 0 Z " fill="#423D3D" transform="translate(192.625,63.125)"/>
<path d="M0 0 C3.66737585 1.24428823 5.37610271 2.27211983 7.875 5.1875 C9.34700677 8.86751692 9.82263179 12.13589471 9 16 C7.0195784 19.52074951 4.90288327 21.69903891 1 23 C-4.12776758 23.48420096 -8.51585923 23.84808044 -13.0625 21.25 C-16.61873089 17.12018349 -17.59518433 13.65586954 -17.42578125 8.26171875 C-16.80351695 4.95629644 -15.58105065 3.20158131 -13.04296875 1.03125 C-8.86404277 -1.07818874 -4.52225007 -0.67295388 0 0 Z " fill="#FBF3F2" transform="translate(144,177)"/>
<path d="M0 0 C5.24721879 -0.08745365 5.24721879 -0.08745365 8 1 C10.65331563 4.66653232 12 8.48723931 12 13 C12.66 13 13.32 13 14 13 C14.226875 12.46375 14.45375 11.9275 14.6875 11.375 C16.49538935 8.10358117 18.31784602 5.62255055 21 3 C24.8125 2.625 24.8125 2.625 28 3 C27.2036893 10.69767006 26.12178733 18.34352921 25 26 C22.69 26 20.38 26 18 26 C18.33 23.03 18.66 20.06 19 17 C18.34 17 17.68 17 17 17 C16.690625 17.639375 16.38125 18.27875 16.0625 18.9375 C15 21 15 21 14 22 C12.33382885 22.04063832 10.66611905 22.042721 9 22 C8.34 20.35 7.68 18.7 7 17 C6.34 18.98 5.68 20.96 5 23 C2.69 23 0.38 23 -2 23 C-2.31918373 15.14453364 -1.35709504 7.73059495 0 0 Z " fill="#FBF4F3" transform="translate(156,179)"/>
<path d="M0 0 C3.28515625 -0.28125 3.28515625 -0.28125 7 0 C8.99609375 1.96875 8.99609375 1.96875 10.4375 4.5 C10.93121094 5.3353125 11.42492187 6.170625 11.93359375 7.03125 C12.28550781 7.6809375 12.63742188 8.330625 13 9 C13.66 6.69 14.32 4.38 15 2 C17.64 2 20.28 2 23 2 C22.53430878 9.8187104 21.77541538 17.36399015 20 25 C16.875 25.625 16.875 25.625 13 25 C10.50484239 21.91488105 8.73463624 18.55822819 7 15 C6.34 17.64 5.68 20.28 5 23 C2.69 23 0.38 23 -2 23 C-2.2700558 15.1683819 -1.23107719 7.72720775 0 0 Z " fill="#FBF0F0" transform="translate(198,185)"/>
<path d="M0 0 C2.6169064 1.03650018 3.88099117 2.04828134 6 4 C6 4.99 6 5.98 6 7 C2.53879749 9.30746834 1.822094 9.12061679 -2.125 8.5625 C-3.74549452 8.33938844 -5.37048916 8.14309325 -7 8 C-8.33187793 9.11166864 -8.33187793 9.11166864 -8.1875 11.9375 C-8.33278733 15.10892859 -8.33278733 15.10892859 -6 17 C-3.93125966 17.6425235 -3.93125966 17.6425235 -2 18 C-2 16.02 -2 14.04 -2 12 C0.31 12 2.62 12 5 12 C5 15.3 5 18.6 5 22 C0.07673494 24.46163253 -3.59166142 24.56190531 -9 24 C-12.20384041 22.70483047 -13.5905657 21.48002642 -15.8125 18.875 C-17.47944176 14.83924626 -17.83127338 11.29995051 -17 7 C-12.9535455 -0.20868376 -7.66714568 -0.86753636 0 0 Z " fill="#FBEEED" transform="translate(239,189)"/>
<path d="M0 0 C0.845625 0.7425 1.69125 1.485 2.5625 2.25 C2.5625 3.57 2.5625 4.89 2.5625 6.25 C0.9125 6.91 -0.7375 7.57 -2.4375 8.25 C-3.0975 7.59 -3.7575 6.93 -4.4375 6.25 C-6.97940002 5.9999227 -6.97940002 5.9999227 -9.4375 6.25 C-10.84182936 7.42718985 -10.84182936 7.42718985 -10.5625 10.75 C-10.84182936 14.07281015 -10.84182936 14.07281015 -9.4375 15.25 C-7.77144172 15.2950286 -6.10371616 15.28874921 -4.4375 15.25 C-3.1175 15.25 -1.7975 15.25 -0.4375 15.25 C0.2225 16.9 0.8825 18.55 1.5625 20.25 C-2.99497058 22.86476999 -7.2951243 23.05298927 -12.4375 22.25 C-15.64039214 20.60933484 -17.68642499 18.2741932 -19.8125 15.375 C-20.77473181 12.10341185 -20.84750392 9.64717535 -20.4375 6.25 C-15.41574764 -1.35436786 -8.51666553 -4.335757 0 0 Z " fill="#FAEEEE" transform="translate(123.4375,174.75)"/>
<path d="M0 0 C2.71284561 3.2997076 5.14713688 6.64687667 7.43359375 10.25390625 C8.39712769 11.76791016 8.39712769 11.76791016 9.38012695 13.3125 C10.05906006 14.385 10.73799316 15.4575 11.4375 16.5625 C12.8770265 18.82458968 14.3170785 21.08633633 15.7578125 23.34765625 C16.11778824 23.91324249 16.47776398 24.47882874 16.84864807 25.06155396 C20.13896227 30.22798291 23.46824527 35.36837773 26.8125 40.5 C27.60394409 41.71502197 27.60394409 41.71502197 28.41137695 42.95458984 C29.44390953 44.53961651 30.47654032 46.1245792 31.50927734 47.70947266 C34.33550439 52.05203114 37.14944954 56.40254172 39.96020508 60.75512695 C42.30472392 64.38497451 44.65761416 68.00899397 47.0234375 71.625 C47.52149902 72.38852783 48.01956055 73.15205566 48.53271484 73.9387207 C49.48099132 75.3920609 50.43167354 76.8438355 51.38525391 78.29370117 C53.85953512 82.0923305 56.05769615 85.89177178 58 90 C53.66133023 88.55377674 52.30805389 85.22085771 50 81.5 C49.00413473 79.92693867 48.00803494 78.35402578 47.01171875 76.78125 C46.50688965 75.97816406 46.00206055 75.17507812 45.48193359 74.34765625 C43.29125756 70.87722121 41.05077165 67.43983912 38.8125 64 C34.22066253 56.91456527 29.67168454 49.8019649 25.125 42.6875 C20.02684274 34.71159503 14.90992008 26.74860871 9.75 18.8125 C9.2255127 18.00578857 8.70102539 17.19907715 8.16064453 16.36791992 C7.66935059 15.61357666 7.17805664 14.8592334 6.671875 14.08203125 C6.21619141 13.37900879 5.76050781 12.67598633 5.29101562 11.95166016 C4.46791811 10.70736335 3.62465249 9.47601606 2.75585938 8.26318359 C0.49232508 5.08888396 0 4.08389837 0 0 Z " fill="#464040" transform="translate(197,76)"/>
<path d="M0 0 C2.64 0 5.28 0 8 0 C7.69224454 3.08382614 7.3779641 6.16695365 7.0625 9.25 C6.93198242 10.55904297 6.93198242 10.55904297 6.79882812 11.89453125 C6.66831055 13.16103516 6.66831055 13.16103516 6.53515625 14.453125 C6.456604 15.22817383 6.37805176 16.00322266 6.29711914 16.80175781 C6.00997086 18.92623038 5.56205228 20.93296525 5 23 C2.36 22.67 -0.28 22.34 -3 22 C-2.51172287 14.52165033 -1.66594452 7.31074682 0 0 Z " fill="#FBF2F1" transform="translate(187,184)"/>
<path d="M0 0 C3.875 1.63157895 3.875 1.63157895 5.375 4 C5.90610151 8.0970688 5.760629 10.30290142 3.75 13.9375 C1.375 16 1.375 16 -1.6875 16.5625 C-4.625 16 -4.625 16 -6.5 14.4375 C-8.08368655 11.00617914 -8.14986995 8.73969841 -7.625 5 C-3.97916667 0 -3.97916667 0 0 0 Z " fill="#F50D0D" transform="translate(150.625,215)"/>
<path d="M0 0 C2.375 1.0625 2.375 1.0625 4 3 C4.6096772 7.11532111 4.39579343 9.28452726 2.375 12.9375 C0 15 0 15 -3.0625 15.5 C-6.31894817 14.94571095 -7.04271455 14.55645446 -9 12 C-9.3984375 9.84375 -9.3984375 9.84375 -9.375 7.5 C-9.38273438 6.7265625 -9.39046875 5.953125 -9.3984375 5.15625 C-8.41623629 -0.15919182 -4.82107675 -0.59033593 0 0 Z " fill="#F40D0D" transform="translate(191,221)"/>
<path d="M0 0 C0.66 0 1.32 0 2 0 C2.38218767 1.65614657 2.71395102 3.32457024 3 5 C2.67 5.33 2.34 5.66 2 6 C1.90105545 7.4346959 1.87029265 8.87440397 1.875 10.3125 C1.87242188 11.09238281 1.86984375 11.87226563 1.8671875 12.67578125 C1.99500088 14.91251539 2.38086131 16.85266979 3 19 C1.1875 18.8125 1.1875 18.8125 -1 18 C-2.75 15.4375 -2.75 15.4375 -4 13 C-5.27875 13.20625 -6.5575 13.4125 -7.875 13.625 C-10.0546875 13.9765625 -10.0546875 13.9765625 -12 14 C-14 12 -14 12 -14.25 8.5 C-14 5 -14 5 -12 3 C-8.38245897 2.61920621 -6.11598788 3.15348866 -3 5 C-2.01 4.34 -1.02 3.68 0 3 C0 2.01 0 1.02 0 0 Z " fill="#F30B0B" transform="translate(126,177)"/>
<path d="M0 0 C3.75283733 1.45271122 3.75283733 1.45271122 4.875 3.9375 C5 6 5 6 3 9 C2.75753217 12.20379124 2.75753217 12.20379124 2.875 15.6875 C2.90207031 17.45673828 2.90207031 17.45673828 2.9296875 19.26171875 C2.95289063 20.16535156 2.97609375 21.06898438 3 22 C1.35 22.66 -0.3 23.32 -2 24 C-1.67 23.34 -1.34 22.68 -1 22 C-0.53042009 18.92098239 -0.43535695 16.06990398 -1 13 C-4.94797122 9.24942734 -9.92048396 7.75155726 -15 6 C-15 4.68 -15 3.36 -15 2 C-10.65535464 2.60825035 -6.32448133 3.26167392 -2 4 C-1.34 2.68 -0.68 1.36 0 0 Z " fill="#F21B1B" transform="translate(129,208)"/>
<path d="M0 0 C3.375 0.875 3.375 0.875 5.375 2.875 C5.61258973 7.07241858 5.25502354 10.7846506 4.375 14.875 C2.7463449 14.45130928 1.12212622 14.0105377 -0.5 13.5625 C-1.40492188 13.31886719 -2.30984375 13.07523438 -3.2421875 12.82421875 C-5.625 11.875 -5.625 11.875 -7.625 8.875 C-8.12951649 5.59564281 -7.90022753 4.29334584 -6.0625 1.5 C-3.625 -0.125 -3.625 -0.125 0 0 Z " fill="#960F12" transform="translate(192.625,63.125)"/>
<path d="M0 0 C0.04165365 1.66614608 0.04165365 3.33385392 0 5 C0.66 5.66 1.32 6.32 2 7 C1.20335937 7.03738281 0.40671875 7.07476562 -0.4140625 7.11328125 C-6.31776574 7.47956941 -10.96943503 7.78602794 -16 11 C-15.855625 10.29875 -15.71125 9.5975 -15.5625 8.875 C-14.98521625 5.92443859 -14.48304859 2.96729849 -14 0 C-12.23243706 -0.39012425 -10.46075217 -0.7616098 -8.6875 -1.125 C-7.70136719 -1.33382812 -6.71523437 -1.54265625 -5.69921875 -1.7578125 C-3 -2 -3 -2 0 0 Z " fill="#F61110" transform="translate(151,200)"/>
<path d="M0 0 C0.66 0.33 1.32 0.66 2 1 C-0.96624159 2.97749439 -2.58462127 3.40230872 -6 4 C-6.99 4.33 -7.98 4.66 -9 5 C-10.12085312 7.3430809 -10.12085312 7.3430809 -11 10 C-11.65213539 11.34050052 -12.31379969 12.67661368 -13 14 C-16.36591866 12.55746343 -18.51047079 10.66735273 -21 8 C-19.59421776 4.60269293 -18.16501434 2.88611211 -15 1 C-12.08984375 0.7421875 -12.08984375 0.7421875 -8.9375 0.875 C-4.39063672 1.04646552 -4.39063672 1.04646552 0 0 Z " fill="#F41515" transform="translate(123,234)"/>
<path d="M0 0 C0 3.10551666 -0.5393715 4.35261084 -2 7 C-4.31 7 -6.62 7 -9 7 C-9 8.98 -9 10.96 -9 13 C-13.75 12.25 -13.75 12.25 -16 10 C-16.25 7 -16.25 7 -16 4 C-14 2 -14 2 -11.125 1.8125 C-8 2 -8 2 -5.875 2.6875 C-3.82802958 3.24372498 -3.82802958 3.24372498 -1.75 1.5625 C-0.88375 0.7890625 -0.88375 0.7890625 0 0 Z " fill="#F01111" transform="translate(246,194)"/>
<path d="M0 0 C0.69738281 0.00902344 1.39476563 0.01804688 2.11328125 0.02734375 C3.82566958 0.05080112 5.53788004 0.08666896 7.25 0.125 C6.734375 0.5375 6.21875 0.95 5.6875 1.375 C5.213125 1.9525 4.73875 2.53 4.25 3.125 C4.47757731 5.28799211 4.47757731 5.28799211 5.25 7.125 C-1.15629424 7.33352314 -6.67972642 7.2833195 -12.75 5.125 C-11.75 2.125 -11.75 2.125 -10.171875 0.9453125 C-6.7874856 -0.20101294 -3.52604471 -0.08665138 0 0 Z " fill="#F52F2F" transform="translate(91.75,252.875)"/>
<path d="M0 0 C0.33 0 0.66 0 1 0 C1.16529468 6.90281437 0.72168937 13.51534687 -0.2421875 20.34765625 C-0.37062042 21.28556503 -0.49905334 22.22347382 -0.63137817 23.18980408 C-0.90202704 25.1506941 -1.17614314 27.11110849 -1.45361328 29.07104492 C-1.87806567 32.08426344 -2.285268 35.099499 -2.69140625 38.11523438 C-2.95730188 40.02618547 -3.22419246 41.93699845 -3.4921875 43.84765625 C-3.6131076 44.75169693 -3.73402771 45.65573761 -3.85861206 46.58717346 C-4.16975953 48.7359663 -4.57554996 50.87068895 -5 53 C-5.99 53.495 -5.99 53.495 -7 54 C-7.0544452 51.79194476 -7.09299283 49.58349446 -7.125 47.375 C-7.14820313 46.14523437 -7.17140625 44.91546875 -7.1953125 43.6484375 C-7 40 -7 40 -6.05249023 37.20996094 C-4.92713967 33.7777853 -4.41478646 30.57393347 -3.96484375 26.9921875 C-3.88126114 26.34428253 -3.79767853 25.69637756 -3.71156311 25.02883911 C-3.44787066 22.97823436 -3.19221674 20.92673727 -2.9375 18.875 C-2.6779348 16.81631297 -2.41662502 14.75787348 -2.15272522 12.69973755 C-1.91458264 10.83787445 -1.68163747 8.97534876 -1.44897461 7.11279297 C-1.09658258 4.66961821 -0.66642324 2.37154247 0 0 Z " fill="#F28887" transform="translate(262,216)"/>
<path d="M0 0 C2.33944736 0.28730055 4.6739143 0.61936779 7 1 C8.32727273 6.30909091 8.32727273 6.30909091 6.875 9.375 C5 11 5 11 2.4375 11.4375 C1.633125 11.293125 0.82875 11.14875 0 11 C-2 8 -2 8 -1.6875 4.375 C-1 1 -1 1 0 0 Z " fill="#F11515" transform="translate(137,183)"/>
<path d="M0 0 C1.32 0.33 2.64 0.66 4 1 C3.01 1 2.02 1 1 1 C1.0309375 1.99128906 1.061875 2.98257813 1.09375 4.00390625 C0.99603823 8.16887055 0.38250904 11.88670399 -0.5 15.9375 C-0.64308594 16.62134766 -0.78617188 17.30519531 -0.93359375 18.00976562 C-1.28283771 19.67449514 -1.64052946 21.33744875 -2 23 C-0.02 23 1.96 23 4 23 C4 23.33 4 23.66 4 24 C-1.37305699 24.96891192 -1.37305699 24.96891192 -4 25 C-6 23.5625 -6 23.5625 -7 22 C-6.34 22 -5.68 22 -5 22 C-4.93941406 21.03578125 -4.87882813 20.0715625 -4.81640625 19.078125 C-4.69072266 17.18320313 -4.69072266 17.18320313 -4.5625 15.25 C-4.48128906 13.99703125 -4.40007812 12.7440625 -4.31640625 11.453125 C-4.07484478 8.81682447 -3.75716066 6.51962706 -3 4 C-2.34 4 -1.68 4 -1 4 C-0.67 2.68 -0.34 1.36 0 0 Z " fill="#EF2A2B" transform="translate(186,183)"/>
<path d="M0 0 C0.33 0 0.66 0 1 0 C0.5140207 7.3620694 0.02325928 14.69100518 -1 22 C-2.65 22.33 -4.3 22.66 -6 23 C-5.01 16.4 -4.02 9.8 -3 3 C-2.01 2.67 -1.02 2.34 0 2 C0 1.34 0 0.68 0 0 Z " fill="#EE1516" transform="translate(197,185)"/>
<path d="M0 0 C2.125 0.375 2.125 0.375 4 1 C3.01 1.33 2.02 1.66 1 2 C0.67 2.99 0.34 3.98 0 5 C0.99 5.66 1.98 6.32 3 7 C4.32 5.68 5.64 4.36 7 3 C6.44271087 6.34373475 5.64826111 9.03312999 4 12 C0.63408134 10.55746343 -1.51047079 8.66735273 -4 6 C-2.84826645 3.53199953 -1.95216435 1.95216435 0 0 Z " fill="#FC1D1C" transform="translate(106,236)"/>
<path d="M0 0 C3.63 1.32 7.26 2.64 11 4 C11 4.99 11 5.98 11 7 C4.92671312 7.50610724 1.22771463 6.04157942 -4 3 C-2.68 2.67 -1.36 2.34 0 2 C0 1.34 0 0.68 0 0 Z " fill="#ED1818" transform="translate(106,220)"/>
<path d="M0 0 C0.33 0 0.66 0 1 0 C1.19392201 5.52677733 0.7479503 9.75614911 -1 15 C-2.65 13.35 -4.3 11.7 -6 10 C-5.67 9.67 -5.34 9.34 -5 9 C-4.76924918 7.65252916 -4.58846937 6.29622435 -4.4375 4.9375 C-4.293125 3.638125 -4.14875 2.33875 -4 1 C-3.67 1 -3.34 1 -3 1 C-3 2.65 -3 4.3 -3 6 C-2.34 5.67 -1.68 5.34 -1 5 C-0.34444881 2.47266765 -0.34444881 2.47266765 0 0 Z " fill="#F33030" transform="translate(261,260)"/>
<path d="M0 0 C0.04165365 1.66614608 0.04165365 3.33385392 0 5 C0.66 5.66 1.32 6.32 2 7 C-0.97 7 -3.94 7 -7 7 C-5.68 6.67 -4.36 6.34 -3 6 C-3 5.01 -3 4.02 -3 3 C-4.32 3 -5.64 3 -7 3 C-7 2.34 -7 1.68 -7 1 C-9.31 1 -11.62 1 -14 1 C-14 0.67 -14 0.34 -14 0 C-12.23243706 -0.39012425 -10.46075217 -0.7616098 -8.6875 -1.125 C-7.70136719 -1.33382812 -6.71523437 -1.54265625 -5.69921875 -1.7578125 C-3 -2 -3 -2 0 0 Z " fill="#F23D3C" transform="translate(151,200)"/>
<path d="M0 0 C4.02951393 3.7432252 6.92492169 7.64721125 9.8125 12.3125 C10.21919922 12.95767578 10.62589844 13.60285156 11.04492188 14.26757812 C12.0358257 15.84136655 13.01875372 17.42017212 14 19 C13.34 19.66 12.68 20.32 12 21 C9.98875443 18.07005382 7.99300594 15.12987701 6 12.1875 C5.42765625 11.35412109 4.8553125 10.52074219 4.265625 9.66210938 C3.72421875 8.85966797 3.1828125 8.05722656 2.625 7.23046875 C2.12226563 6.49207764 1.61953125 5.75368652 1.1015625 4.99291992 C0 3 0 3 0 0 Z " fill="#4A4545" transform="translate(222,116)"/>
<path d="M0 0 C2.64 0.33 5.28 0.66 8 1 C7.67 1.66 7.34 2.32 7 3 C6.0409375 3.2165625 6.0409375 3.2165625 5.0625 3.4375 C2.61789145 3.86165035 2.61789145 3.86165035 1 7 C0.56261304 8.71444889 0.19151312 10.44667784 -0.125 12.1875 C-0.29257813 13.08855469 -0.46015625 13.98960937 -0.6328125 14.91796875 C-0.75398437 15.60503906 -0.87515625 16.29210937 -1 17 C-2.3357457 13.22628488 -1.72408671 10.14168653 -1.0625 6.25 C-0.86785156 5.07953125 -0.67320312 3.9090625 -0.47265625 2.703125 C-0.31667969 1.81109375 -0.16070312 0.9190625 0 0 Z " fill="#F4CDCB" transform="translate(156,179)"/>
<path d="M0 0 C0.66 0.33 1.32 0.66 2 1 C1.50628906 1.40089844 1.01257813 1.80179688 0.50390625 2.21484375 C-3.07732049 5.39255198 -5.4073941 7.67558623 -5.9375 12.5625 C-5.99318806 14.04076483 -6.01607854 15.52077401 -6 17 C-6.020625 18.175625 -6.04125 19.35125 -6.0625 20.5625 C-6.041875 21.366875 -6.02125 22.17125 -6 23 C-8.9824515 18.52632274 -8.73133222 14.243652 -8 9 C-6.16226756 5.00646605 -3.67011268 2.44674179 0 0 Z " fill="#ECCCC9" transform="translate(139,208)"/>
<path d="M0 0 C4.75 0.875 4.75 0.875 7 2 C7.4140625 4.50390625 7.4140625 4.50390625 7.625 7.5625 C7.69976562 8.57441406 7.77453125 9.58632812 7.8515625 10.62890625 C7.90054688 11.41136719 7.94953125 12.19382813 8 13 C6.35 13.66 4.7 14.32 3 15 C3.33 14.34 3.66 13.68 4 13 C4.53151198 8.4865048 4.86526046 5.10861497 2 1.4375 C1.34 0.963125 0.68 0.48875 0 0 Z " fill="#EB3535" transform="translate(124,217)"/>
<path d="M0 0 C0.99 0 1.98 0 3 0 C3.12156361 4.25472632 2.92751122 8.14497757 1 12 C0.34 11.67 -0.32 11.34 -1 11 C-1.02688151 9.35425434 -1.04634123 7.70838587 -1.0625 6.0625 C-1.07410156 5.14597656 -1.08570313 4.22945313 -1.09765625 3.28515625 C-1 1 -1 1 0 0 Z " fill="#F70606" transform="translate(259,255)"/>
<path d="M0 0 C0.33 0 0.66 0 1 0 C1 4.62 1 9.24 1 14 C1.33 14 1.66 14 2 14 C2 15.65 2 17.3 2 19 C0.35 19.33 -1.3 19.66 -3 20 C-2.01 13.4 -1.02 6.8 0 0 Z " fill="#EB3E3F" transform="translate(194,188)"/>
<path d="M0 0 C-1.32 0.33 -2.64 0.66 -4 1 C-4.33 3.64 -4.66 6.28 -5 9 C-6.65 7.35 -8.3 5.7 -10 4 C-9.67 3.01 -9.34 2.02 -9 1 C-5.8035914 -0.06546953 -3.34252724 -0.07427838 0 0 Z " fill="#EE1515" transform="translate(217,186)"/>
<path d="M0 0 C-1.55002747 3.88397689 -4.00476621 6.02979619 -7.125 8.75 C-8.49011719 9.94882813 -8.49011719 9.94882813 -9.8828125 11.171875 C-10.58148438 11.77515625 -11.28015625 12.3784375 -12 13 C-12.66 12.34 -13.32 11.68 -14 11 C-12.04709472 9.16056628 -10.08818082 7.32840869 -8.125 5.5 C-7.29162109 4.71302734 -7.29162109 4.71302734 -6.44140625 3.91015625 C-2.2265625 0 -2.2265625 0 0 0 Z " fill="#474343" transform="translate(159,98)"/>
<path d="M0 0 C0.66 0 1.32 0 2 0 C2 0.66 2 1.32 2 2 C3.65 1.67 5.3 1.34 7 1 C6.67 2.32 6.34 3.64 6 5 C3.36 5.66 0.72 6.32 -2 7 C-2.33 6.01 -2.66 5.02 -3 4 C-2.01 4 -1.02 4 0 4 C0 2.68 0 1.36 0 0 Z " fill="#F71918" transform="translate(142,201)"/>
<path d="M0 0 C0.33 0 0.66 0 1 0 C1.22245393 1.60226955 1.42746669 3.20696767 1.625 4.8125 C1.74101562 5.70582031 1.85703125 6.59914063 1.9765625 7.51953125 C2 10 2 10 0 13 C-2.22641709 8.67813153 -1.9957658 5.70725649 -1 1 C-0.67 0.67 -0.34 0.34 0 0 Z " fill="#F82726" transform="translate(254,257)"/>
<path d="M0 0 C2.52588702 2.36292656 3.88820837 3.66462511 5 7 C4.360625 7.12375 3.72125 7.2475 3.0625 7.375 C2.0415625 7.684375 2.0415625 7.684375 1 8 C0.67 8.66 0.34 9.32 0 10 C-1.65 10 -3.3 10 -5 10 C-3.68 9.67 -2.36 9.34 -1 9 C-0.67 6.03 -0.34 3.06 0 0 Z " fill="#EA3233" transform="translate(204,199)"/>
<path d="M0 0 C0.33 0 0.66 0 1 0 C2.33257403 12.66970387 2.33257403 12.66970387 1 18 C0.67 18 0.34 18 0 18 C0 15.69 0 13.38 0 11 C-0.66 11 -1.32 11 -2 11 C-1.34 7.37 -0.68 3.74 0 0 Z " fill="#E92122" transform="translate(207,226)"/>
<path d="M0 0 C2.97 0.33 5.94 0.66 9 1 C8.67 1.99 8.34 2.98 8 4 C5.36 4 2.72 4 0 4 C0 2.68 0 1.36 0 0 Z " fill="#FB0302" transform="translate(150,154)"/>
<path d="M0 0 C1.98 0.99 1.98 0.99 4 2 C3.67 2.66 3.34 3.32 3 4 C2.77532169 5.53668865 2.59203195 7.07968054 2.4375 8.625 C2.35371094 9.44226563 2.26992187 10.25953125 2.18359375 11.1015625 C2.12300781 11.72804687 2.06242188 12.35453125 2 13 C0 11 0 11 -0.1953125 8.3984375 C-0.17210937 7.40070313 -0.14890625 6.40296875 -0.125 5.375 C-0.10695312 4.37210938 -0.08890625 3.36921875 -0.0703125 2.3359375 C-0.04710937 1.56507813 -0.02390625 0.79421875 0 0 Z " fill="#E92425" transform="translate(220,192)"/>
<path d="M0 0 C0.99 0.66 1.98 1.32 3 2 C2.67 2.99 2.34 3.98 2 5 C-0.5625 6.1875 -0.5625 6.1875 -3 7 C-3.66 6.01 -4.32 5.02 -5 4 C-3.35 3.34 -1.7 2.68 0 2 C0 1.34 0 0.68 0 0 Z " fill="#FAE3E3" transform="translate(124,176)"/>
<path d="M0 0 C3.125 0.75 3.125 0.75 6 2 C6.33 2.66 6.66 3.32 7 4 C0.375 4.25 0.375 4.25 -3 2 C-2.01 1.34 -1.02 0.68 0 0 Z " fill="#F60303" transform="translate(85,255)"/>
<path d="M0 0 C1.65 0 3.3 0 5 0 C4.67 1.65 4.34 3.3 4 5 C3.01 5 2.02 5 1 5 C0.34 4.01 -0.32 3.02 -1 2 C-0.67 1.34 -0.34 0.68 0 0 Z " fill="#FA0101" transform="translate(106,238)"/>
<path d="M0 0 C0.66 0.33 1.32 0.66 2 1 C-5.11389522 8.66742597 -5.11389522 8.66742597 -10 10 C-3.84965831 2.51708428 -3.84965831 2.51708428 0 0 Z " fill="#3C3737" transform="translate(144,110)"/>
<path d="M0 0 C1.65 0.33 3.3 0.66 5 1 C5 1.99 5 2.98 5 4 C1.37 4 -2.26 4 -6 4 C-6 3.67 -6 3.34 -6 3 C-3.69 3 -1.38 3 1 3 C0.67 2.01 0.34 1.02 0 0 Z " fill="#F53C3C" transform="translate(92,256)"/>
<path d="M0 0 C0.66 0.33 1.32 0.66 2 1 C-0.64 3.64 -3.28 6.28 -6 9 C-6.66 8.34 -7.32 7.68 -8 7 C-5.4837822 4.39391727 -2.94865641 2.10618315 0 0 Z " fill="#453434" transform="translate(112,138)"/>
<path d="M0 0 C0.33 0 0.66 0 1 0 C1.144375 0.78375 1.28875 1.5675 1.4375 2.375 C1.87798925 4.96421018 1.87798925 4.96421018 3 7 C4.98 7 6.96 7 9 7 C9 7.33 9 7.66 9 8 C3.62694301 8.96891192 3.62694301 8.96891192 1 9 C-1 7.5625 -1 7.5625 -2 6 C-1.34 6 -0.68 6 0 6 C0 4.02 0 2.04 0 0 Z " fill="#EE3D3E" transform="translate(181,199)"/>
<path d="M0 0 C3.39417765 3.12621626 5.6062718 5.56541027 7 10 C2.95868733 8.65289578 2.09711566 6.61571666 0 3 C0 2.01 0 1.02 0 0 Z " fill="#544F4F" transform="translate(222,116)"/>
<path d="M0 0 C2.51570636 0.97382182 3.73944098 1.46151135 4.9375 3.9375 C5 6 5 6 3.5625 7.75 C2.7890625 8.36875 2.7890625 8.36875 2 9 C1.67 7.35 1.34 5.7 1 4 C0.34 4 -0.32 4 -1 4 C-0.67 2.68 -0.34 1.36 0 0 Z " fill="#F22525" transform="translate(129,208)"/>
<path d="M0 0 C0.99 0.33 1.98 0.66 3 1 C-0.75 6.875 -0.75 6.875 -3 8 C-2.45276317 4.62537285 -1.9451 2.91765 0 0 Z " fill="#EDC6C4" transform="translate(102,223)"/>
<path d="M0 0 C1.9375 0.75 1.9375 0.75 4 2 C4.75 4.125 4.75 4.125 5 6 C4.01 6.495 4.01 6.495 3 7 C1.5 5.75 1.5 5.75 0 4 C0 2.68 0 1.36 0 0 Z " fill="#FADEDE" transform="translate(120,189)"/>
<path d="M0 0 C1.65 0 3.3 0 5 0 C4.67 1.32 4.34 2.64 4 4 C3.34 3.67 2.68 3.34 2 3 C1.01 3.33 0.02 3.66 -1 4 C-0.67 2.68 -0.34 1.36 0 0 Z " fill="#FCFCFD" transform="translate(215,188)"/>
<path d="M0 0 C0.66 0 1.32 0 2 0 C2.66 1.65 3.32 3.3 4 5 C2.68 5.99 1.36 6.98 0 8 C0 5.36 0 2.72 0 0 Z " fill="#EF1F1F" transform="translate(244,202)"/>
<path d="M0 0 C0.33 0 0.66 0 1 0 C1.66 3.63 2.32 7.26 3 11 C1.68 10.67 0.36 10.34 -1 10 C-0.67 6.7 -0.34 3.4 0 0 Z " fill="#E83334" transform="translate(126,185)"/>
<path d="M0 0 C2.97 0.495 2.97 0.495 6 1 C6 1.66 6 2.32 6 3 C4.02 3.66 2.04 4.32 0 5 C0 3.35 0 1.7 0 0 Z " fill="#FBFDF8" transform="translate(187,186)"/>
</svg>
